 <svg  version="1.0" xmlns="http://www.w3.org/2000/svg"  width="232.000000pt" height="263.000000pt" viewBox="0 0 232.000000 263.000000"  preserveAspectRatio="xMidYMid meet">  <g transform="translate(0.000000,263.000000) scale(0.050000,-0.050000)" fill="#c6a2dd" stroke="none"> <path d="M1432 5195 c-50 -28 -97 -78 -127 -135 l-47 -90 6 -745 c3 -410 4 -745 2 -745 -3 0 -61 31 -130 68 -448 245 -959 138 -930 -194 14 -162 142 -267 416 -343 281 -77 658 -545 658 -815 0 -358 -6 -356 1117 -356 1005 0 1002 0 1083 129 54 88 63 1908 10 2011 -80 155 -281 220 -432 141 l-84 -43 -60 73 c-107 130 -237 159 -392 88 l-88 -40 -68 80 c-104 121 -271 151 -399 70 l-44 -28 -6 345 c-6 304 -12 352 -48 414 -87 148 -287 201 -437 115z m284 -108 c78 -49 84 -107 84 -766 0 -541 4 -640 30 -661 67 -56 90 8 90 254 l0 230 68 68 c95 95 189 95 284 0 l68 -68 0 -338 c0 -356 11 -403 83 -364 33 17 37 48 37 311 l0 291 62 58 c86 80 193 80 283 0 l65 -59 10 -336 c10 -331 11 -337 55 -343 53 -8 51 -16 46 250 -7 313 53 426 223 426 211 0 220 -47 212 -1137 l-6 -846 -56 -49 -56 -48 -887 0 c-1070 0 -1011 -16 -1011 272 0 298 -429 792 -780 900 -251 77 -348 183 -286 312 107 222 660 141 937 -136 l109 -109 0 886 c0 843 2 888 39 949 62 101 186 123 297 53z"/> <path d="M2309 2311 c-62 -63 -64 -150 -4 -206 107 -99 255 -39 255 104 0 133 -156 196 -251 102z"/> <path d="M1873 5171 l57 -68 676 -2 676 -1 49 -49 c49 -49 49 -51 49 -456 l0 -406 69 -65 c87 -83 83 -113 71 450 -15 712 53 666 -967 666 l-737 0 57 -69z"/> <path d="M2131 5001 c-8 -12 116 -21 320 -25 312 -6 367 0 335 31 -21 21 -642 15 -655 -6z"/> <path d="M2237 1443 c-91 -45 -118 -146 -70 -266 18 -47 25 -90 16 -96 -128 -84 -65 -384 87 -412 171 -32 250 43 250 240 0 127 1 131 51 131 39 0 50 9 45 35 -6 30 -30 35 -163 35 -178 0 -211 27 -212 175 -2 154 190 154 203 1 9 -108 83 -111 92 -3 12 144 -153 233 -299 160z m203 -522 c0 -134 -30 -181 -117 -181 -79 0 -103 35 -103 150 0 124 23 150 134 150 l86 0 0 -119z"/> <path d="M660 1420 c-45 -45 -61 -603 -20 -680 50 -93 290 -94 340 -1 36 69 25 161 -20 161 -29 0 -40 -13 -40 -49 0 -61 -49 -111 -110 -111 -79 0 -110 50 -110 181 l0 119 150 0 150 0 0 170 c0 216 -26 250 -190 250 -83 0 -120 -10 -150 -40z m228 -58 c25 -28 33 -65 28 -145 l-6 -107 -100 0 -100 0 -6 113 c-8 162 93 239 184 139z"/> <path d="M3740 1424 c-62 -50 -69 -194 -10 -194 31 0 41 15 46 65 20 207 215 113 200 -97 l-6 -88 -109 -3 c-146 -4 -181 -45 -181 -217 0 -198 149 -298 275 -185 35 32 39 32 71 0 32 -32 34 -12 34 321 0 327 -3 357 -40 394 -53 53 -216 55 -280 4z m240 -493 c0 -153 -141 -261 -199 -152 -68 126 -11 261 110 261 l89 0 0 -109z"/> <path d="M25 1066 c5 -361 7 -376 45 -376 37 0 40 11 33 175 l-7 175 111 0 111 0 6 -175 c5 -160 9 -175 46 -175 38 0 40 15 45 375 l6 375 -51 0 c-50 0 -50 -2 -50 -170 l0 -171 -105 6 -105 5 -2 160 c-3 147 -6 161 -46 166 -43 7 -43 6 -37 -370z"/> <path d="M1200 1070 c0 -203 7 -370 15 -371 8 0 75 -4 148 -9 100 -6 136 -1 144 19 16 41 -5 51 -110 51 l-97 0 0 340 0 340 -50 0 -50 0 0 -370z"/> <path d="M1625 1065 c5 -360 7 -375 45 -375 35 0 41 15 46 124 l6 125 91 -2 c132 -3 174 46 178 207 6 248 -32 296 -235 296 l-137 0 6 -375z m244 284 c38 -39 44 -288 7 -325 -13 -13 -53 -24 -89 -24 l-64 0 -7 182 c-3 100 -2 185 2 190 21 20 122 5 151 -23z"/> <path d="M2739 1430 c-21 -285 3 -741 38 -746 37 -6 42 6 47 120 7 139 -10 125 161 134 120 6 173 360 69 459 -43 40 -312 68 -315 33z m222 -71 c34 -17 39 -43 39 -178 0 -170 -7 -181 -122 -181 l-58 0 0 190 0 190 51 0 c29 0 69 -9 90 -21z"/> <path d="M3276 1075 c4 -200 11 -368 15 -373 30 -30 278 -10 285 23 6 30 -9 35 -105 35 l-111 0 0 340 c0 339 0 340 -45 340 l-45 0 6 -365z"/> <path d="M4220 1245 c1 -220 22 -282 111 -322 56 -25 60 -34 60 -130 -1 -156 74 -154 89 3 8 87 19 110 60 130 113 56 158 514 50 514 l-50 0 0 -206 c0 -227 -12 -254 -110 -254 -98 0 -110 27 -110 254 l0 206 -50 0 c-50 0 -50 0 -50 -195z"/> <path d="M660 244 c0 -218 5 -224 204 -224 143 0 156 3 156 40 0 36 -13 40 -140 40 -132 0 -140 3 -140 45 0 42 9 45 125 45 98 0 125 7 125 30 0 23 -27 30 -125 30 -116 0 -125 3 -125 45 0 42 8 45 140 45 127 0 140 4 140 40 0 37 -13 40 -180 40 l-180 0 0 -176z"/> <path d="M1091 376 c-79 -114 -12 -196 160 -196 115 0 129 -4 129 -39 0 -35 -16 -40 -155 -45 -130 -5 -156 -12 -161 -42 -14 -71 358 -40 393 33 47 98 -18 160 -179 173 -192 15 -181 68 17 76 129 5 145 10 145 45 0 63 -304 58 -349 -5z"/> <path d="M1480 380 c0 -33 13 -40 80 -40 l80 0 0 -160 c0 -147 3 -160 40 -160 37 0 40 13 40 160 l0 160 80 0 c67 0 80 7 80 40 0 37 -13 40 -200 40 -187 0 -200 -3 -200 -40z"/> <path d="M2224 386 c5 -29 30 -37 126 -42 186 -10 204 -84 20 -84 -134 0 -170 -32 -170 -151 l0 -89 191 0 c172 0 191 4 185 35 -5 29 -32 36 -151 41 -204 8 -220 78 -21 88 153 7 204 62 154 167 -36 74 -348 107 -334 35z"/> <path d="M2678 368 c-138 -147 -35 -348 180 -348 144 1 158 6 208 79 146 214 -208 460 -388 269z m271 -44 c-37 -32 -229 -164 -239 -164 -23 0 -8 94 21 136 25 36 51 44 134 44 57 0 94 -7 84 -16z m53 -181 c-15 -28 -48 -41 -117 -48 -139 -12 -139 -2 0 91 131 88 178 71 117 -43z"/> <path d="M3180 381 c0 -34 16 -40 125 -45 183 -9 198 -76 18 -76 -141 0 -183 -38 -183 -164 l0 -76 190 0 c178 0 190 3 190 41 0 37 -11 40 -141 37 -150 -4 -171 3 -152 51 9 23 41 31 121 31 157 0 234 115 141 209 -52 51 -309 44 -309 -8z"/> <path d="M3580 300 l0 -120 140 0 140 0 0 -80 c0 -70 6 -80 46 -80 46 0 47 5 48 200 2 198 2 200 -46 200 -43 0 -48 -9 -48 -80 l0 -80 -100 0 -100 0 0 80 c0 67 -7 80 -40 80 -36 0 -40 -13 -40 -120z"/> <path d="M1892 69 c-6 -18 2 -36 20 -42 37 -15 78 21 59 51 -20 32 -65 27 -79 -9z"/> </g> </svg> 