<?xml version="1.0" standalone="no"?>
<!DOCTYPE svg PUBLIC "-//W3C//DTD SVG 20010904//EN"
 "http://www.w3.org/TR/2001/REC-SVG-20010904/DTD/svg10.dtd">
<svg version="1.0" xmlns="http://www.w3.org/2000/svg"
 width="512.000000pt" height="512.000000pt" viewBox="0 0 512.000000 512.000000"
 preserveAspectRatio="xMidYMid meet">

<g transform="translate(0.000000,512.000000) scale(0.100000,-0.100000)"
fill="#000000" stroke="none">
<path d="M2463 5106 c-57 -19 -122 -58 -157 -95 l-30 -31 -142 0 c-134 0 -144
-1 -169 -23 -20 -17 -28 -35 -32 -70 l-6 -47 -799 0 -799 0 -24 -25 -25 -24 0
-828 0 -828 -40 -49 c-95 -115 -167 -257 -211 -418 -23 -83 -23 -87 -27 -808
-1 -399 0 -735 3 -748 3 -13 20 -30 40 -39 l35 -17 0 -98 c0 -90 -2 -98 -19
-98 -11 0 -29 -12 -40 -26 -19 -25 -21 -40 -21 -188 0 -191 14 -268 66 -366
138 -263 505 -360 755 -199 103 66 141 121 454 664 165 285 307 527 316 539
17 21 17 21 76 -35 71 -67 109 -91 190 -118 83 -28 207 -28 295 -1 115 35 232
128 276 218 l16 32 116 0 116 0 16 -32 c44 -90 161 -183 276 -218 88 -27 212
-27 295 1 81 27 119 51 190 118 59 56 59 56 76 35 9 -12 151 -254 316 -539
313 -543 351 -598 454 -664 255 -164 624 -63 760 209 23 46 44 106 50 147 9
49 11 358 9 1108 l-3 1040 -24 83 c-45 162 -116 304 -211 418 l-40 49 0 828 0
828 -25 24 -24 25 -799 0 -799 0 -6 47 c-4 35 -12 53 -32 70 -24 22 -35 23
-167 23 l-141 0 -44 41 c-90 83 -235 119 -340 85z m161 -148 c84 -26 146 -126
133 -220 -12 -90 -103 -168 -197 -168 -174 0 -264 216 -142 338 57 57 126 74
206 50z m-412 -207 c3 -58 11 -93 30 -130 l25 -51 -87 0 c-71 0 -89 3 -94 16
-3 9 -6 67 -6 130 l0 114 64 0 63 0 5 -79z m828 -35 c0 -63 -3 -121 -6 -130
-5 -13 -23 -16 -94 -16 l-87 0 25 51 c19 37 27 72 30 130 l5 79 63 0 64 0 0
-114z m-1980 -238 c0 -6 10 -22 22 -35 l21 -23 1421 0 c782 0 1526 -3 1654 -7
l232 -6 0 -336 0 -336 -108 3 c-94 3 -111 1 -132 -16 -31 -25 -31 -74 -1 -106
20 -21 33 -24 124 -28 83 -3 112 -8 157 -29 90 -43 165 -134 185 -227 l7 -32
-75 40 c-89 48 -185 83 -289 104 -63 13 -150 16 -468 16 -305 0 -390 3 -390
13 0 6 6 35 13 62 l13 50 232 5 c252 5 256 6 268 65 4 22 0 38 -16 58 l-22 28
-262 -3 c-243 -3 -263 -4 -288 -23 -34 -26 -52 -58 -67 -120 -31 -130 -29
-125 -66 -125 l-35 0 0 220 c0 236 -4 261 -52 294 -34 24 -84 19 -198 -19 -57
-19 -107 -35 -112 -35 -4 0 -14 13 -22 29 -31 60 -48 62 -446 59 l-360 -3 -32
-33 -33 -32 -3 -240 -3 -240 -34 0 c-32 0 -35 3 -45 43 -38 144 -43 158 -77
187 -18 16 -43 32 -56 35 -12 3 -246 5 -520 3 l-497 -3 2 340 3 340 63 5 c64
5 92 23 92 57 0 10 24 13 100 13 70 0 100 -4 100 -12z m627 -943 c7 -27 13
-55 13 -62 0 -9 -104 -13 -422 -15 l-423 -4 -90 -27 c-49 -15 -134 -49 -187
-76 -112 -55 -116 -53 -69 44 30 64 86 127 136 153 76 39 95 41 569 39 l460
-2 13 -50z m1599 -242 c-3 -10 -21 -83 -41 -163 -20 -80 -40 -162 -46 -182
l-10 -38 -629 0 -629 0 -10 38 c-6 20 -26 102 -46 182 -20 80 -38 153 -41 163
-5 16 34 17 726 17 692 0 731 -1 726 -17z m-2116 -356 l0 -103 -65 -64 -65
-64 -65 64 -65 64 0 103 0 103 130 0 130 0 0 -103z m-473 -449 l63 -62 -67
-68 -67 -68 -98 0 -98 0 0 130 0 130 102 0 102 0 63 -62z m963 -68 l0 -130
-103 0 -103 0 -64 65 -64 65 64 65 64 65 103 0 103 0 0 -130z m2000 115 c63
-32 81 -138 35 -194 -78 -92 -226 -42 -225 77 1 26 6 57 14 70 31 56 115 79
176 47z m960 0 c30 -16 30 -16 30 -110 0 -86 -2 -95 -22 -109 -36 -26 -111
-21 -147 10 -114 95 8 277 139 209z m-2272 -112 l3 -63 -136 0 -135 0 0 58 c0
32 3 62 7 66 4 3 63 5 132 4 l126 -3 3 -62z m690 0 l3 -63 -136 0 -135 0 0 58
c0 32 3 62 7 66 4 3 63 5 132 4 l126 -3 3 -62z m-1868 -510 l0 -103 -130 0
-130 0 0 97 0 97 67 68 67 68 63 -62 63 -62 0 -103z m2969 139 c38 -20 71 -73
71 -112 0 -64 -67 -130 -133 -130 -97 0 -158 113 -107 198 35 58 108 77 169
44z m-1981 -156 c248 -127 248 -475 0 -602 -76 -39 -190 -45 -273 -13 -71 27
-149 100 -185 174 -20 41 -24 65 -24 140 0 79 3 97 27 142 72 138 170 196 322
190 63 -3 91 -9 133 -31z m1060 19 c74 -22 148 -86 191 -165 34 -61 36 -70 36
-155 -1 -110 -24 -164 -100 -241 -71 -71 -142 -97 -250 -92 -166 9 -285 114
-315 279 -30 161 77 330 240 380 43 13 144 10 198 -6z"/>
<path d="M2505 4820 c-25 -27 -23 -76 3 -102 45 -46 125 -13 125 51 0 44 -28
71 -73 71 -24 0 -43 -7 -55 -20z"/>
<path d="M1935 1795 c-58 -20 -121 -93 -134 -154 -28 -130 76 -261 208 -261
109 0 228 119 199 199 -16 43 -58 62 -103 45 -9 -4 -25 -24 -36 -45 -23 -46
-57 -59 -94 -35 -52 34 -22 116 42 116 61 0 86 90 37 129 -31 24 -63 26 -119
6z"/>
<path d="M3048 1796 c-88 -32 -139 -94 -146 -180 -6 -72 12 -121 62 -171 70
-70 181 -84 257 -32 47 32 89 89 96 130 4 29 1 40 -20 61 -34 34 -71 33 -102
-1 -14 -16 -34 -38 -45 -50 -10 -13 -28 -23 -40 -23 -27 0 -60 35 -60 64 0 29
42 66 76 66 23 0 64 42 64 66 0 26 -23 62 -47 73 -30 14 -49 13 -95 -3z"/>
</g>
</svg>
